<?xml version="1.0" encoding="utf-8"?>
<!DOCTYPE svg PUBLIC "-//W3C//DTD SVG 1.1//EN" "http://www.w3.org/Graphics/SVG/1.1/DTD/svg11.dtd">
<svg version="1.1" xmlns="http://www.w3.org/2000/svg" xmlns:xlink="http://www.w3.org/1999/xlink" x="0px" y="0px" viewBox="0 0 1000 1000" enable-background="new 0 0 1000 1000" xml:space="preserve">
<metadata> Svg Vector Icons : http://www.onlinewebfonts.com/icon </metadata>
<g><path d="M587.8,503.9L971,120.7c25.3-25.3,25.3-66.4,0-91.7c-25.3-25.3-66.4-25.3-91.7,0L496.1,412.2L122.5,38.6c-25.7-25.7-67.5-25.7-93.2,0c-25.7,25.7-25.7,67.5,0,93.2l373.6,373.6L53.7,854.6c-25.3,25.3-25.3,66.4,0,91.7c25.3,25.3,66.4,25.3,91.7,0l349.2-349.2l373.6,373.6c25.7,25.7,67.5,25.7,93.2,0c25.7-25.7,25.7-67.5,0-93.2L587.8,503.9z"/></g>
</svg>